<svg xmlns="http://www.w3.org/2000/svg" width="1200" height="630" viewBox="0 0 1200 630">
  <rect width="1200" height="630" fill="#FFFFFF"/>

  <!-- Sidebar -->
  <rect x="40" y="40" width="200" height="550" rx="8" fill="#FAFAFA" stroke="#E4E4E7" stroke-width="1"/>
  <rect x="60" y="70" width="160" height="12" rx="4" fill="#7C3AED" opacity="0.6"/>
  <rect x="60" y="100" width="120" height="8" rx="3" fill="#18181B" opacity="0.1"/>
  <rect x="60" y="124" width="140" height="8" rx="3" fill="#18181B" opacity="0.1"/>
  <rect x="60" y="148" width="100" height="8" rx="3" fill="#18181B" opacity="0.1"/>
  <rect x="60" y="172" width="130" height="8" rx="3" fill="#18181B" opacity="0.1"/>
  <rect x="60" y="196" width="110" height="8" rx="3" fill="#18181B" opacity="0.1"/>

  <!-- Top bar -->
  <rect x="270" y="40" width="890" height="50" rx="8" fill="#FAFAFA" stroke="#E4E4E7" stroke-width="1"/>

  <!-- KPI cards row -->
  <rect x="270" y="110" width="210" height="100" rx="8" fill="#FFFFFF" stroke="#E4E4E7" stroke-width="1"/>
  <rect x="500" y="110" width="210" height="100" rx="8" fill="#FFFFFF" stroke="#E4E4E7" stroke-width="1"/>
  <rect x="730" y="110" width="210" height="100" rx="8" fill="#FFFFFF" stroke="#E4E4E7" stroke-width="1"/>
  <rect x="960" y="110" width="200" height="100" rx="8" fill="#FFFFFF" stroke="#E4E4E7" stroke-width="1"/>

  <!-- KPI accent bars -->
  <rect x="290" y="180" width="80" height="4" rx="2" fill="#7C3AED" opacity="0.7"/>
  <rect x="520" y="180" width="60" height="4" rx="2" fill="#22C55E" opacity="0.7"/>
  <rect x="750" y="180" width="100" height="4" rx="2" fill="#7C3AED" opacity="0.7"/>
  <rect x="980" y="180" width="70" height="4" rx="2" fill="#F59E0B" opacity="0.7"/>

  <!-- Resource cards -->
  <rect x="270" y="230" width="280" height="90" rx="8" fill="#FFFFFF" stroke="#E4E4E7" stroke-width="1"/>
  <rect x="570" y="230" width="280" height="90" rx="8" fill="#FFFFFF" stroke="#E4E4E7" stroke-width="1"/>
  <rect x="870" y="230" width="290" height="90" rx="8" fill="#FFFFFF" stroke="#E4E4E7" stroke-width="1"/>

  <!-- Status dots -->
  <circle cx="290" cy="255" r="4" fill="#22C55E"/>
  <circle cx="590" cy="255" r="4" fill="#22C55E"/>
  <circle cx="890" cy="255" r="4" fill="#F59E0B"/>

  <!-- Deploy log area -->
  <rect x="270" y="340" width="550" height="200" rx="8" fill="#09090B"/>
  <rect x="290" y="370" width="200" height="6" rx="2" fill="#A1A1AA" opacity="0.3"/>
  <rect x="290" y="390" width="280" height="6" rx="2" fill="#22C55E" opacity="0.4"/>
  <rect x="290" y="410" width="240" height="6" rx="2" fill="#A1A1AA" opacity="0.3"/>
  <rect x="290" y="430" width="320" height="6" rx="2" fill="#A1A1AA" opacity="0.3"/>
  <rect x="290" y="450" width="180" height="6" rx="2" fill="#F59E0B" opacity="0.4"/>
  <rect x="290" y="470" width="260" height="6" rx="2" fill="#A1A1AA" opacity="0.3"/>
  <rect x="290" y="490" width="300" height="6" rx="2" fill="#22C55E" opacity="0.5"/>

  <!-- Activity feed -->
  <rect x="840" y="340" width="320" height="200" rx="8" fill="#FFFFFF" stroke="#E4E4E7" stroke-width="1"/>
  <rect x="860" y="370" width="280" height="8" rx="3" fill="#18181B" opacity="0.08"/>
  <rect x="860" y="396" width="280" height="8" rx="3" fill="#18181B" opacity="0.06"/>
  <rect x="860" y="422" width="280" height="8" rx="3" fill="#18181B" opacity="0.08"/>
  <rect x="860" y="448" width="280" height="8" rx="3" fill="#18181B" opacity="0.06"/>
  <rect x="860" y="474" width="280" height="8" rx="3" fill="#18181B" opacity="0.08"/>
  <rect x="860" y="500" width="280" height="8" rx="3" fill="#18181B" opacity="0.06"/>

  <!-- Title -->
  <text x="600" y="580" text-anchor="middle" font-family="system-ui, -apple-system, sans-serif" font-size="48" font-weight="700" fill="#7C3AED">Cloud Platform</text>
  <!-- Subtitle -->
  <text x="600" y="615" text-anchor="middle" font-family="system-ui, -apple-system, sans-serif" font-size="22" font-weight="400" fill="#71717A">Decantr Showcase</text>
</svg>
