<svg xmlns="http://www.w3.org/2000/svg" width="1200" height="630" viewBox="0 0 1200 630">
  <rect width="1200" height="630" fill="#0a0a1a"/>

  <!-- Sidebar suggestion -->
  <rect x="40" y="40" width="200" height="550" rx="12" fill="#111127" stroke="#8b5cf6" stroke-opacity="0.3" stroke-width="1"/>
  <rect x="60" y="70" width="160" height="12" rx="4" fill="#8b5cf6" opacity="0.5"/>
  <rect x="60" y="100" width="120" height="8" rx="3" fill="#ffffff" opacity="0.1"/>
  <rect x="60" y="124" width="140" height="8" rx="3" fill="#ffffff" opacity="0.1"/>
  <rect x="60" y="148" width="100" height="8" rx="3" fill="#ffffff" opacity="0.1"/>
  <rect x="60" y="172" width="130" height="8" rx="3" fill="#ffffff" opacity="0.1"/>
  <rect x="60" y="196" width="110" height="8" rx="3" fill="#ffffff" opacity="0.1"/>

  <!-- Top bar -->
  <rect x="270" y="40" width="890" height="50" rx="12" fill="#111127"/>

  <!-- KPI cards row -->
  <rect x="270" y="110" width="210" height="100" rx="12" fill="#111127" stroke="#8b5cf6" stroke-opacity="0.2" stroke-width="1"/>
  <rect x="500" y="110" width="210" height="100" rx="12" fill="#111127" stroke="#8b5cf6" stroke-opacity="0.2" stroke-width="1"/>
  <rect x="730" y="110" width="210" height="100" rx="12" fill="#111127" stroke="#8b5cf6" stroke-opacity="0.2" stroke-width="1"/>
  <rect x="960" y="110" width="200" height="100" rx="12" fill="#111127" stroke="#8b5cf6" stroke-opacity="0.2" stroke-width="1"/>

  <!-- KPI accent bars -->
  <rect x="290" y="180" width="80" height="6" rx="3" fill="#8b5cf6" opacity="0.7"/>
  <rect x="520" y="180" width="60" height="6" rx="3" fill="#8b5cf6" opacity="0.7"/>
  <rect x="750" y="180" width="100" height="6" rx="3" fill="#8b5cf6" opacity="0.7"/>
  <rect x="980" y="180" width="70" height="6" rx="3" fill="#8b5cf6" opacity="0.7"/>

  <!-- Chart area -->
  <rect x="270" y="230" width="550" height="220" rx="12" fill="#111127"/>
  <!-- Chart bars -->
  <rect x="310" y="370" width="30" height="60" rx="4" fill="#8b5cf6" opacity="0.4"/>
  <rect x="355" y="340" width="30" height="90" rx="4" fill="#8b5cf6" opacity="0.5"/>
  <rect x="400" y="310" width="30" height="120" rx="4" fill="#8b5cf6" opacity="0.6"/>
  <rect x="445" y="280" width="30" height="150" rx="4" fill="#8b5cf6" opacity="0.7"/>
  <rect x="490" y="320" width="30" height="110" rx="4" fill="#8b5cf6" opacity="0.6"/>
  <rect x="535" y="350" width="30" height="80" rx="4" fill="#8b5cf6" opacity="0.5"/>
  <rect x="580" y="300" width="30" height="130" rx="4" fill="#8b5cf6" opacity="0.65"/>
  <rect x="625" y="260" width="30" height="170" rx="4" fill="#8b5cf6" opacity="0.8"/>
  <rect x="670" y="290" width="30" height="140" rx="4" fill="#8b5cf6" opacity="0.7"/>
  <rect x="715" y="330" width="30" height="100" rx="4" fill="#8b5cf6" opacity="0.55"/>
  <rect x="760" y="360" width="30" height="70" rx="4" fill="#8b5cf6" opacity="0.45"/>

  <!-- Table area -->
  <rect x="840" y="230" width="320" height="220" rx="12" fill="#111127"/>
  <rect x="860" y="260" width="280" height="8" rx="3" fill="#ffffff" opacity="0.08"/>
  <rect x="860" y="286" width="280" height="8" rx="3" fill="#ffffff" opacity="0.06"/>
  <rect x="860" y="312" width="280" height="8" rx="3" fill="#ffffff" opacity="0.08"/>
  <rect x="860" y="338" width="280" height="8" rx="3" fill="#ffffff" opacity="0.06"/>
  <rect x="860" y="364" width="280" height="8" rx="3" fill="#ffffff" opacity="0.08"/>
  <rect x="860" y="390" width="280" height="8" rx="3" fill="#ffffff" opacity="0.06"/>
  <rect x="860" y="416" width="280" height="8" rx="3" fill="#ffffff" opacity="0.08"/>

  <!-- Title -->
  <text x="600" y="510" text-anchor="middle" font-family="system-ui, -apple-system, sans-serif" font-size="48" font-weight="700" fill="#8b5cf6">SaaS Dashboard</text>
  <!-- Subtitle -->
  <text x="600" y="555" text-anchor="middle" font-family="system-ui, -apple-system, sans-serif" font-size="22" font-weight="400" fill="#ffffff" opacity="0.35">Decantr Showcase</text>
</svg>